<svg xmlns="http://www.w3.org/2000/svg" viewBox="0 0 212 27"><defs><style>.cls-1{fill:#010101;}</style></defs><title>Element 1</title><g id="Ebene_2" data-name="Ebene 2"><g id="Ebene_1-2" data-name="Ebene 1"><path class="cls-1" d="M0,27V18H15.79A2.22,2.22,0,0,0,18,15.75V9H0V4.5H22.55V18a4.26,4.26,0,0,1-1.34,3.2A4.38,4.38,0,0,1,18,22.5H4.51V27Z"/><path class="cls-1" d="M27.06,22.5V9a4.29,4.29,0,0,1,1.31-3.16,4.38,4.38,0,0,1,3.2-1.34h18v18H45.11V9H33.83a2.19,2.19,0,0,0-1.62.67,2.22,2.22,0,0,0-.64,1.58V18H45.11a4.3,4.3,0,0,1-1.34,3.2,4.4,4.4,0,0,1-3.17,1.3Z"/><path class="cls-1" d="M58.64,22.5a4.36,4.36,0,0,1-3.21-1.3,4.42,4.42,0,0,1-1.3-3.2V4.5H76.68a4.3,4.3,0,0,1-1.34,3.2A4.38,4.38,0,0,1,72.17,9H58.64v6.75A2.16,2.16,0,0,0,60.89,18H76.68a4.3,4.3,0,0,1-1.34,3.2,4.38,4.38,0,0,1-3.17,1.3Z"/><path class="cls-1" d="M85.7,22.5a4.32,4.32,0,0,1-3.2-1.3A4.43,4.43,0,0,1,81.19,18V9A4.29,4.29,0,0,1,82.5,5.84,4.38,4.38,0,0,1,85.7,4.5h18L97,11.25h6.76l-4.51,4.5H88L94.72,9H88a2.24,2.24,0,0,0-2.26,2.25v4.5A2.17,2.17,0,0,0,88,18h15.78a4.29,4.29,0,0,1-1.33,3.2,4.4,4.4,0,0,1-3.18,1.3Z"/><path class="cls-1" d="M108.26,22.5V4.5h18a4.28,4.28,0,0,1,3.17,1.34A4.32,4.32,0,0,1,130.81,9V22.5H126.3V11.25A2.29,2.29,0,0,0,124,9H112.77V22.5Z"/><path class="cls-1" d="M139.83,22.5a4.36,4.36,0,0,1-3.21-1.3,4.42,4.42,0,0,1-1.3-3.2V4.5h22.55V18a4.26,4.26,0,0,1-1.34,3.2,4.38,4.38,0,0,1-3.17,1.3ZM151.11,18a2.22,2.22,0,0,0,2.25-2.25V9H139.83v6.75A2.16,2.16,0,0,0,142.09,18Z"/><path class="cls-1" d="M171.4,22.5a4.35,4.35,0,0,1-3.2-1.3,4.43,4.43,0,0,1-1.31-3.2V9h-4.51a4.29,4.29,0,0,1,1.31-3.16,4.38,4.38,0,0,1,3.2-1.34V0h4.51V4.5h13.54a4.3,4.3,0,0,1-1.34,3.2A4.4,4.4,0,0,1,180.43,9h-9v6.75a2.3,2.3,0,0,0,.64,1.62,2.27,2.27,0,0,0,1.62.63h11.28a4.3,4.3,0,0,1-1.34,3.2,4.4,4.4,0,0,1-3.17,1.3Z"/><path class="cls-1" d="M194,22.5a4.36,4.36,0,0,1-3.21-1.3,4.42,4.42,0,0,1-1.3-3.2V9a4.28,4.28,0,0,1,1.3-3.16A4.38,4.38,0,0,1,194,4.5h18l-6.77,6.75H212l-4.51,4.5H196.21L203,9h-6.77A2.22,2.22,0,0,0,194,11.25v4.5A2.16,2.16,0,0,0,196.21,18H212a4.3,4.3,0,0,1-1.34,3.2,4.38,4.38,0,0,1-3.17,1.3Z"/></g></g></svg>